<svg width="779" height="780" xmlns="http://www.w3.org/2000/svg" xmlns:xlink="http://www.w3.org/1999/xlink" overflow="hidden"><defs><clipPath id="clip0"><rect x="2291" y="980" width="779" height="780"/></clipPath><linearGradient x1="383.032" y1="-0.546209" x2="383.032" y2="773.454" gradientUnits="userSpaceOnUse" spreadMethod="reflect" id="fill1"><stop offset="0" stop-color="#6771F5" stop-opacity="1"/><stop offset="0.27" stop-color="#6771F5" stop-opacity="1"/><stop offset="1" stop-color="#888DE8" stop-opacity="1"/></linearGradient><linearGradient x1="2686" y1="1573" x2="2686" y2="1169" gradientUnits="userSpaceOnUse" spreadMethod="reflect" id="fill2"><stop offset="0" stop-color="#6771F5" stop-opacity="1"/><stop offset="0.27" stop-color="#6771F5" stop-opacity="1"/><stop offset="1" stop-color="#888DE8" stop-opacity="1"/></linearGradient></defs><g clip-path="url(#clip0)" transform="translate(-2291 -980)"><path d="M204.837 729.435C113.966 729.435 40.0518 655.514 40.0518 564.648L40.0518 208.262C40.0518 117.395 113.966 43.4747 204.837 43.4747L561.227 43.4747C652.097 43.4747 726.011 117.395 726.011 208.262L726.011 564.648C726.011 655.514 652.097 729.435 561.227 729.435ZM561.227-0.546209 204.837-0.546209C89.6929-0.546209-3.96846 93.1176-3.96846 208.262L-3.96846 564.648C-3.96846 679.792 89.6929 773.454 204.837 773.454L561.227 773.454C676.352 773.454 770.032 679.792 770.032 564.648L770.032 208.262C770.032 93.1176 676.352-0.546209 561.227-0.546209" fill="url(#fill1)" fill-rule="evenodd" transform="matrix(1 0 0 -1 2299 1758)"/><path d="M2869.67 1202.49C2835.89 1186.99 2799.66 1175.57 2761.79 1169.03 2761.1 1168.9 2760.41 1169.22 2760.05 1169.85 2755.4 1178.13 2750.23 1188.94 2746.62 1197.44 2705.88 1191.34 2665.36 1191.34 2625.45 1197.44 2621.84 1188.76 2616.49 1178.13 2611.81 1169.85 2611.46 1169.24 2610.77 1168.92 2610.08 1169.03 2572.22 1175.55 2536 1186.97 2502.2 1202.49 2501.91 1202.62 2501.66 1202.83 2501.49 1203.1 2432.78 1305.76 2413.96 1405.89 2423.19 1504.78 2423.23 1505.27 2423.5 1505.73 2423.88 1506.02 2469.21 1539.32 2513.13 1559.53 2556.22 1572.93 2556.91 1573.14 2557.64 1572.88 2558.08 1572.32 2568.28 1558.39 2577.36 1543.71 2585.16 1528.28 2585.62 1527.37 2585.18 1526.3 2584.24 1525.94 2569.82 1520.47 2556.1 1513.81 2542.89 1506.23 2541.85 1505.62 2541.77 1504.13 2542.73 1503.42 2545.51 1501.33 2548.28 1499.17 2550.94 1496.98 2551.42 1496.58 2552.09 1496.5 2552.65 1496.75 2639.39 1536.35 2733.29 1536.35 2819.01 1496.75 2819.57 1496.48 2820.24 1496.56 2820.74 1496.96 2823.39 1499.15 2826.17 1501.33 2828.97 1503.42 2829.93 1504.13 2829.87 1505.62 2828.83 1506.23 2815.62 1513.95 2801.9 1520.47 2787.46 1525.92 2786.52 1526.28 2786.1 1527.37 2786.56 1528.28 2794.52 1543.69 2803.61 1558.37 2813.62 1572.3 2814.04 1572.88 2814.79 1573.14 2815.48 1572.93 2858.78 1559.53 2902.7 1539.32 2948.03 1506.02 2948.43 1505.73 2948.68 1505.29 2948.72 1504.8 2959.77 1390.47 2930.21 1291.16 2870.36 1203.12 2870.21 1202.83 2869.96 1202.62 2869.67 1202.49ZM2598.11 1444.57C2571.99 1444.57 2550.48 1420.59 2550.48 1391.15 2550.48 1361.7 2571.58 1337.73 2598.11 1337.73 2624.85 1337.73 2646.16 1361.91 2645.74 1391.15 2645.74 1420.59 2624.64 1444.57 2598.11 1444.57ZM2774.22 1444.57C2748.1 1444.57 2726.59 1420.59 2726.59 1391.15 2726.59 1361.7 2747.69 1337.73 2774.22 1337.73 2800.96 1337.73 2822.27 1361.91 2821.85 1391.15 2821.85 1420.59 2800.96 1444.57 2774.22 1444.57Z" fill="url(#fill2)" fill-rule="evenodd"/></g></svg>