<svg width="779" height="780" xmlns="http://www.w3.org/2000/svg" xmlns:xlink="http://www.w3.org/1999/xlink" overflow="hidden"><defs><clipPath id="clip0"><rect x="3272" y="980" width="779" height="780"/></clipPath><linearGradient x1="382.784" y1="773.749" x2="382.784" y2="-0.250902" gradientUnits="userSpaceOnUse" spreadMethod="reflect" id="fill1"><stop offset="0" stop-color="#9E9E9E" stop-opacity="1"/><stop offset="0.5" stop-color="#C4C4C4" stop-opacity="1"/><stop offset="1" stop-color="#E3E3E3" stop-opacity="1"/></linearGradient><linearGradient x1="244.299" y1="313.748" x2="244.299" y2="-0.252343" gradientUnits="userSpaceOnUse" spreadMethod="reflect" id="fill2"><stop offset="0" stop-color="#959595" stop-opacity="1"/><stop offset="0.5" stop-color="#D6D6D6" stop-opacity="1"/><stop offset="1" stop-color="#FFFFFF" stop-opacity="1"/></linearGradient><linearGradient x1="269.302" y1="-0.252828" x2="269.302" y2="357.747" gradientUnits="userSpaceOnUse" spreadMethod="reflect" id="fill3"><stop offset="0" stop-color="#313131" stop-opacity="1"/><stop offset="0.5" stop-color="#4A4A4A" stop-opacity="1"/><stop offset="1" stop-color="#595959" stop-opacity="1"/></linearGradient><linearGradient x1="179.302" y1="-222.253" x2="179.302" y2="135.747" gradientUnits="userSpaceOnUse" spreadMethod="reflect" id="fill4"><stop offset="0" stop-color="#313131" stop-opacity="1"/><stop offset="0.5" stop-color="#4A4A4A" stop-opacity="1"/><stop offset="1" stop-color="#595959" stop-opacity="1"/></linearGradient><linearGradient x1="134.302" y1="-178.253" x2="134.302" y2="179.747" gradientUnits="userSpaceOnUse" spreadMethod="reflect" id="fill5"><stop offset="0" stop-color="#313131" stop-opacity="1"/><stop offset="0.5" stop-color="#4A4A4A" stop-opacity="1"/><stop offset="1" stop-color="#595959" stop-opacity="1"/></linearGradient><linearGradient x1="89.3021" y1="-133.253" x2="89.3021" y2="224.747" gradientUnits="userSpaceOnUse" spreadMethod="reflect" id="fill6"><stop offset="0" stop-color="#313131" stop-opacity="1"/><stop offset="0.5" stop-color="#4A4A4A" stop-opacity="1"/><stop offset="1" stop-color="#595959" stop-opacity="1"/></linearGradient><linearGradient x1="-135.698" y1="-222.253" x2="-135.698" y2="135.747" gradientUnits="userSpaceOnUse" spreadMethod="reflect" id="fill7"><stop offset="0" stop-color="#313131" stop-opacity="1"/><stop offset="0.5" stop-color="#4A4A4A" stop-opacity="1"/><stop offset="1" stop-color="#595959" stop-opacity="1"/></linearGradient><linearGradient x1="-90.6981" y1="-178.253" x2="-90.6981" y2="179.747" gradientUnits="userSpaceOnUse" spreadMethod="reflect" id="fill8"><stop offset="0" stop-color="#313131" stop-opacity="1"/><stop offset="0.5" stop-color="#4A4A4A" stop-opacity="1"/><stop offset="1" stop-color="#595959" stop-opacity="1"/></linearGradient><linearGradient x1="-45.698" y1="-133.253" x2="-45.698" y2="224.747" gradientUnits="userSpaceOnUse" spreadMethod="reflect" id="fill9"><stop offset="0" stop-color="#313131" stop-opacity="1"/><stop offset="0.5" stop-color="#4A4A4A" stop-opacity="1"/><stop offset="1" stop-color="#595959" stop-opacity="1"/></linearGradient><linearGradient x1="44.302" y1="-88.2528" x2="44.302" y2="269.747" gradientUnits="userSpaceOnUse" spreadMethod="reflect" id="fill10"><stop offset="0" stop-color="#313131" stop-opacity="1"/><stop offset="0.5" stop-color="#4A4A4A" stop-opacity="1"/><stop offset="1" stop-color="#595959" stop-opacity="1"/></linearGradient></defs><g clip-path="url(#clip0)" transform="translate(-3272 -980)"><path d="M204.814 729.73C114.062 729.73 40.246 655.809 40.246 564.94L40.246 208.557C40.246 117.689 114.062 43.7682 204.814 43.7682L560.753 43.7682C651.505 43.7682 725.321 117.689 725.321 208.557L725.321 564.94C725.321 655.809 651.505 729.73 560.753 729.73ZM560.753-0.250902 204.814-0.250902C89.8122-0.250902-3.71638 93.4128-3.71638 208.557L-3.71638 564.94C-3.71638 680.085 89.8122 773.749 204.814 773.749L560.753 773.749C675.73 773.749 769.284 680.085 769.284 564.94L769.284 208.557C769.284 93.4128 675.73-0.250902 560.753-0.250902" fill="url(#fill1)" fill-rule="evenodd" transform="matrix(-1 1.22465e-16 1.22465e-16 1 4045 984)"/><path d="M488.8-0.252343-0.200679-0.252343-0.200679 313.748 488.8 313.748 488.8-0.252343" fill="url(#fill2)" fill-rule="evenodd" transform="matrix(-1 1.22465e-16 1.22465e-16 1 3909 1218)"/><path d="M44.2685 44.2543 44.2685 267.329 89.9343 267.329 89.9343 313.227 449.956 313.227 449.956 267.329 494.312 267.329 494.312 44.2543ZM-0.198215 357.747-0.198215-0.252832 538.802-0.252832 538.802 357.747-0.198215 357.747" fill="url(#fill3)" fill-rule="evenodd" transform="matrix(1 0 0 -1 3392 1553)"/><path d="M-0.082956-0.32073 44.9171-0.32073 44.9171 44.6793-0.082956 44.6793-0.082956-0.32073" fill="url(#fill4)" fill-rule="evenodd" transform="matrix(1 0 0 -1 3482 1331)"/><path d="M-0.116052-0.270633 44.8841-0.270633 44.8841 43.7294-0.116052 43.7294-0.116052-0.270633" fill="url(#fill5)" fill-rule="evenodd" transform="matrix(1 0 0 -1 3527 1375)"/><path d="M-0.149522-0.22772 44.8505-0.22772 44.8505 43.7724-0.149522 43.7724-0.149522-0.22772" fill="url(#fill6)" fill-rule="evenodd" transform="matrix(1 0 0 -1 3572 1420)"/><path d="M-0.315202-0.32073 44.6849-0.32073 44.6849 44.6793-0.315202 44.6793-0.315202-0.32073" fill="url(#fill7)" fill-rule="evenodd" transform="matrix(1 0 0 -1 3797 1331)"/><path d="M-0.281829-0.270633 44.7183-0.270633 44.7183 43.7294-0.281829 43.7294-0.281829-0.270633" fill="url(#fill8)" fill-rule="evenodd" transform="matrix(1 0 0 -1 3752 1375)"/><path d="M-0.248393-0.22772 44.7516-0.22772 44.7516 43.7724-0.248393 43.7724-0.248393-0.22772" fill="url(#fill9)" fill-rule="evenodd" transform="matrix(1 0 0 -1 3707 1420)"/><path d="M-0.200337-0.184934 89.7998-0.184934 89.7998 43.8151-0.200337 43.8151-0.200337-0.184934" fill="url(#fill10)" fill-rule="evenodd" transform="matrix(1 0 0 -1 3617 1465)"/></g></svg>