<svg width="779" height="779" xmlns="http://www.w3.org/2000/svg" xmlns:xlink="http://www.w3.org/1999/xlink" overflow="hidden"><defs><clipPath id="clip0"><rect x="1329" y="1897" width="779" height="779"/></clipPath><linearGradient x1="346.782" y1="-30.9156" x2="419.776" y2="803.415" gradientUnits="userSpaceOnUse" spreadMethod="reflect" id="fill1"><stop offset="0" stop-color="#758BB9" stop-opacity="1"/><stop offset="0.27" stop-color="#758BB9" stop-opacity="1"/><stop offset="0.86" stop-color="#3D4E72" stop-opacity="1"/><stop offset="1" stop-color="#3D4E72" stop-opacity="1"/></linearGradient><linearGradient x1="304.218" y1="769.916" x2="231.224" y2="-64.4145" gradientUnits="userSpaceOnUse" spreadMethod="reflect" id="fill2"><stop offset="0" stop-color="#758BB9" stop-opacity="1"/><stop offset="0.27" stop-color="#758BB9" stop-opacity="1"/><stop offset="0.86" stop-color="#3D4E72" stop-opacity="1"/><stop offset="1" stop-color="#3D4E72" stop-opacity="1"/></linearGradient></defs><g clip-path="url(#clip0)" transform="translate(-1329 -1897)"><path d="M205.079 728.787C114.21 728.787 40.298 654.962 40.298 564.211L40.298 208.288C40.298 117.537 114.21 43.7116 205.079 43.7116L561.479 43.7116C652.348 43.7116 726.26 117.537 726.26 208.288L726.26 564.211C726.26 654.962 652.348 728.787 561.479 728.787ZM561.479-0.250578 205.079-0.250578C89.9285-0.250578-3.72119 93.2922-3.72119 208.288L-3.72119 564.211C-3.72119 679.207 89.9285 772.75 205.079 772.75L561.479 772.75C676.605 772.75 770.279 679.207 770.279 564.211L770.279 208.288C770.279 93.2922 676.605-0.250578 561.479-0.250578" fill="url(#fill1)" fill-rule="evenodd" transform="matrix(-1 1.22465e-16 1.22465e-16 1 2101 1902)"/><path d="M76.0817 587.77C75.0408 587.175 73.7769 585.763 73.3306 584.647 72.0668 581.376 69.4647 571.338 67.9032 563.605 67.0856 559.739 66.119 555.575 65.747 554.311 64.7061 550.816 63.3679 532.6 63.9629 529.923 64.2602 528.584 64.5575 525.685 64.6318 523.454 64.7805 516.167 66.342 508.955 70.4313 495.943 71.2488 493.118 71.6951 490.218 71.4722 489.251 71.2488 488.21 69.316 485.385 67.3086 483.006 62.0297 476.76 53.8512 464.417 49.2416 455.569 43.6655 444.936 39.2046 430.809 37.1971 417.499 36.4535 412.964 35.487 407.982 35.041 406.347 34.4464 404.488 34.2231 397.87 34.2231 388.13 34.3717 365.006 34.3717 362.924 35.1897 360.396 35.5616 359.057 36.3049 354.373 36.7512 349.838 37.7178 340.246 39.2046 331.472 41.2121 322.698 42.6246 316.453 43.5169 313.553 47.4575 302.771 49.7623 296.303 56.9739 281.655 59.4277 278.458 60.3196 277.268 61.8068 274.889 62.699 273.253 67.8288 263.81 78.1635 252.657 91.9925 241.504 98.0146 236.671 117.866 224.774 122.104 223.436 123.07 223.138 126.416 221.726 129.539 220.313 135.189 217.711 145.895 214.216 159.055 210.721 164.854 209.16 173.553 207.524 193.479 204.327 197.047 203.732 198.46 203.137 199.278 201.799 200.765 199.568 200.17 197.858 196.304 193.099 193.479 189.679 187.68 180.459 187.68 179.492 187.68 179.269 186.713 177.039 185.449 174.511 183.144 169.678 180.691 161.35 179.798 155.03 179.055 149.305 177.866 147.669 173.033 145.513 167.234 142.91 156.899 140.234 148.646 139.118 145.003 138.598 140.765 137.854 139.278 137.408 137.791 137.036 134.817 136.888 132.587 137.111 130.356 137.408 127.085 137.706 125.226 137.78 117.866 138.3 102.178 143.579 95.8585 147.743 88.4235 152.577 86.2674 154.435 80.2453 160.755 74.3715 167.001 68.9441 174.511 63.4423 183.88 58.907 191.687 43.8885 206.483 37.7921 209.16 36.6025 209.606 34.1488 210.944 32.2903 212.06 28.4983 214.29 20.0225 216.818 13.8517 217.562 8.64723 218.082 1.21228 216.818-0.572225 215.034-1.8361 213.77-1.8361 213.621-0.572225 211.316 0.914982 208.49 9.09318 201.278 13.1825 199.196 16.8998 197.263 30.9517 183.285 35.7846 176.741 40.1712 170.719 47.0855 157.186 53.4796 142.093 61.7324 122.612 75.1151 108.559 94.5946 99.1158 112.959 90.2678 135.412 88.1858 166.193 92.7213 174.222 93.911 175.189 93.911 176.23 92.7957 177.271 91.8294 177.345 87.5168 177.271 56.2138 177.196 22.2338 177.122 20.5982 175.709 16.583 174.371 13.1628 174.297 12.3448 175.114 11.5268 177.122 9.66821 203.664 4.09171 222.995 1.56344 262.921-3.71574 306.786-1.48514 346.786 7.88358 362.028 11.4525 361.21 10.8578 358.682 16.806 357.195 20.2262 357.121 21.9365 356.898 81.717 356.749 115.474 356.452 144.472 356.229 146.108 355.485 151.536 353.552 160.681 352.065 166.109 350.132 173.098 342.846 187.3 338.385 192.802 336.452 195.181 334.667 197.933 334.444 198.973 333.775 201.724 336.378 204.178 340.69 204.773 351.768 206.334 354.593 206.706 362.028 208.119 375.708 210.572 394.221 215.926 405.522 220.685 418.459 226.113 434.741 235.258 442.325 241.355 456.079 252.434 466.637 263.81 471.767 273.253 472.659 274.889 474.146 277.268 475.113 278.458 477.269 281.358 485.001 297.492 488.273 305.969 492.511 317.048 496.005 333.182 497.715 349.838 498.161 354.373 498.904 359.132 499.276 360.47 499.722 361.734 500.02 364.931 500.02 367.534 500.02 370.062 500.168 377.348 500.391 383.669 500.614 389.989 500.391 397.721 500.02 400.77 497.715 418.243 494.592 432.965 491.395 441.293 487.678 450.81 484.927 456.982 483.291 459.51 482.399 460.922 480.317 464.268 478.756 466.871 475.187 472.893 471.618 477.801 467.009 483.154 465.075 485.459 463.291 488.136 462.994 489.177 462.696 490.218 463.143 493.118 464.035 495.943 468.347 509.624 469.685 516.167 469.834 525.016 469.908 528.064 470.131 530.964 470.354 531.335 470.949 532.302 469.611 551.485 468.719 554.237 468.347 555.501 467.38 559.739 466.563 563.605 464.778 572.527 461.581 583.904 460.392 585.837 459.053 588.068 455.931 589.109 451.841 588.662 436.303 587.175 419.5 581.896 401.507 572.825 396.154 570.074 390.578 567.1 389.165 566.133 387.753 565.167 386.266 564.349 385.968 564.349 385.596 564.349 382.325 562.341 378.608 559.888 374.965 557.434 371.693 555.426 371.322 555.426 370.95 555.426 369.24 554.311 367.381 552.898 361.061 548.065 362.251 548.14 344.928 552.303 340.021 553.493 333.478 554.906 330.429 555.352 327.381 555.872 322.326 556.765 319.277 557.359 304.482 560.185 287.01 561.597 267.233 561.597 247.308 561.597 229.464 560.11 215.189 557.285 212.14 556.69 206.415 555.649 202.475 555.054 198.535 554.385 191.992 553.047 187.977 552.006 172.81 548.14 173.33 548.14 167.085 552.898 165.226 554.311 163.442 555.426 163.144 555.426 162.773 555.426 160.022 557.062 157.048 559.07 147.457 565.538 126.714 576.32 116.676 580.112 97.7173 587.175 80.7656 590.447 76.0817 587.77Z" fill="url(#fill2)" fill-rule="evenodd" transform="matrix(1 0 0 -1 1450 2641)"/></g></svg>