<svg width="780" height="779" xmlns="http://www.w3.org/2000/svg" xmlns:xlink="http://www.w3.org/1999/xlink" overflow="hidden"><defs><clipPath id="clip0"><rect x="352" y="68" width="780" height="779"/></clipPath><linearGradient x1="851.19" y1="552.216" x2="-81.0283" y2="212.917" gradientUnits="userSpaceOnUse" spreadMethod="reflect" id="fill1"><stop offset="0" stop-color="#7A38AB" stop-opacity="1"/><stop offset="0.43956" stop-color="#EC0A24" stop-opacity="1"/><stop offset="0.99" stop-color="#FBDA00" stop-opacity="1"/><stop offset="1" stop-color="#FBDA00" stop-opacity="1"/></linearGradient><linearGradient x1="599.19" y1="300.216" x2="-333.028" y2="-39.0834" gradientUnits="userSpaceOnUse" spreadMethod="reflect" id="fill2"><stop offset="0" stop-color="#7A38AB" stop-opacity="1"/><stop offset="0.43956" stop-color="#EC0A24" stop-opacity="1"/><stop offset="0.99" stop-color="#FBDA00" stop-opacity="1"/><stop offset="1" stop-color="#FBDA00" stop-opacity="1"/></linearGradient><linearGradient x1="727.19" y1="428.216" x2="-205.028" y2="88.9168" gradientUnits="userSpaceOnUse" spreadMethod="reflect" id="fill3"><stop offset="0" stop-color="#7A38AB" stop-opacity="1"/><stop offset="0.43956" stop-color="#EC0A24" stop-opacity="1"/><stop offset="0.99" stop-color="#FBDA00" stop-opacity="1"/><stop offset="1" stop-color="#FBDA00" stop-opacity="1"/></linearGradient><linearGradient x1="352.19" y1="56.2165" x2="-580.028" y2="-283.083" gradientUnits="userSpaceOnUse" spreadMethod="reflect" id="fill4"><stop offset="0" stop-color="#7A38AB" stop-opacity="1"/><stop offset="0.43956" stop-color="#EC0A24" stop-opacity="1"/><stop offset="0.99" stop-color="#FBDA00" stop-opacity="1"/><stop offset="1" stop-color="#FBDA00" stop-opacity="1"/></linearGradient></defs><g clip-path="url(#clip0)" transform="translate(-352 -68)"><path d="M206.887 725.542C116.024 725.542 42.1008 651.631 42.1008 560.764L42.1008 204.376C42.1008 113.509 116.024 39.5861 206.887 39.5861L563.278 39.5861C654.142 39.5861 728.064 113.509 728.064 204.376L728.064 560.764C728.064 651.631 654.142 725.542 563.278 725.542ZM563.278-4.43356 206.887-4.43356C91.7503-4.43356-1.91925 89.2347-1.91925 204.376L-1.91925 560.764C-1.91925 675.894 91.7503 769.567 206.887 769.567L563.278 769.567C678.415 769.567 772.081 675.894 772.081 560.764L772.081 204.376C772.081 89.2347 678.415-4.43356 563.278-4.43356" fill="url(#fill1)" fill-rule="evenodd" transform="matrix(1 0 0 -1 355 841)"/><path d="M132.398 44.5354C85.3608 44.5354 47.0945 82.9429 47.0945 130.15 47.0945 177.368 85.3608 215.776 132.398 215.776 179.43 215.776 217.692 177.368 217.692 130.15 217.692 82.9429 179.43 44.5354 132.398 44.5354ZM132.398 265.155C58.2312 265.155-2.10624 204.594-2.10624 130.15-2.10624 55.7167 58.2312-4.8444 132.398-4.8444 206.559-4.8444 266.894 55.7167 266.894 130.15 266.894 204.594 206.559 265.155 132.398 265.155" fill="url(#fill2)" fill-rule="evenodd" transform="matrix(1 0 0 -1 607 589)"/><path d="M474.697 141.867C474.697 88.1731 431.012 44.4879 377.315 44.4879L144.553 44.4879C90.8521 44.4879 47.164 88.1731 47.164 141.867L47.164 374.636C47.164 428.329 90.8521 472.015 144.553 472.015L377.315 472.015C431.012 472.015 474.697 428.329 474.697 374.636ZM377.315 521.251 144.553 521.251C63.7052 521.251-2.06941 455.483-2.06941 374.636L-2.06941 141.867C-2.06941 61.0195 63.7052-4.74884 144.553-4.74884L377.315-4.74884C458.159-4.74884 523.931 61.0195 523.931 141.867L523.931 374.636C523.931 455.483 458.159 521.251 377.315 521.251" fill="url(#fill3)" fill-rule="evenodd" transform="matrix(1 0 0 -1 479 717)"/><path d="M58.488 25.1541C58.488 8.30978 44.8328-5.34605 27.9877-5.34605 11.1418-5.34605-2.51259 8.30978-2.51259 25.1541-2.51259 41.9983 11.1418 55.6542 27.9877 55.6542 44.8328 55.6542 58.488 41.9983 58.488 25.1541" fill="url(#fill4)" fill-rule="evenodd" transform="matrix(1 0 0 -1 854 345)"/></g></svg>