<svg width="780" height="780" xmlns="http://www.w3.org/2000/svg" xmlns:xlink="http://www.w3.org/1999/xlink" overflow="hidden"><defs><clipPath id="clip0"><rect x="352" y="980" width="780" height="780"/></clipPath><linearGradient x1="262.216" y1="-72.249" x2="507.564" y2="843.403" gradientUnits="userSpaceOnUse" spreadMethod="reflect" id="fill1"><stop offset="0" stop-color="#494E60" stop-opacity="1"/><stop offset="0.27" stop-color="#494E60" stop-opacity="1"/><stop offset="0.83" stop-color="#242C31" stop-opacity="1"/><stop offset="1" stop-color="#242C31" stop-opacity="1"/></linearGradient><linearGradient x1="741.291" y1="1117.86" x2="741.291" y2="1624.23" gradientUnits="userSpaceOnUse" spreadMethod="reflect" id="fill2"><stop offset="0" stop-color="#FFFFFF" stop-opacity="1"/><stop offset="0.27" stop-color="#FFFFFF" stop-opacity="1"/><stop offset="0.72" stop-color="#C0C0C0" stop-opacity="1"/><stop offset="1" stop-color="#C0C0C0" stop-opacity="1"/></linearGradient></defs><g clip-path="url(#clip0)" transform="translate(-352 -980)"><path d="M206.692 728.557C115.83 728.557 41.909 654.637 41.909 563.78L41.909 207.385C41.909 116.517 115.83 42.597 206.692 42.597L563.083 42.597C653.944 42.597 727.867 116.517 727.867 207.385L727.867 563.78C727.867 654.637 653.944 728.557 563.083 728.557ZM563.083-1.4231 206.692-1.4231C91.5581-1.4231-2.10984 92.2401-2.10984 207.385L-2.10984 563.78C-2.10984 678.914 91.5581 772.577 206.692 772.577L563.083 772.577C678.218 772.577 771.89 678.914 771.89 563.78L771.89 207.385C771.89 92.2401 678.218-1.4231 563.083-1.4231" fill="url(#fill1)" fill-rule="evenodd" transform="matrix(-1 1.22465e-16 1.22465e-16 1 1129 984)"/><path d="M595.116 1117.86 994.473 1224.87 887.466 1624.23 488.109 1517.22ZM713.997 1323.77 694.017 1398.34 768.584 1418.32 788.565 1343.75Z" fill="url(#fill2)" fill-rule="evenodd"/></g></svg>