<svg width="779" height="780" xmlns="http://www.w3.org/2000/svg" xmlns:xlink="http://www.w3.org/1999/xlink" overflow="hidden"><defs><clipPath id="clip0"><rect x="1329" y="980" width="779" height="780"/></clipPath><linearGradient x1="382.949" y1="772.885" x2="382.949" y2="-1.11444" gradientUnits="userSpaceOnUse" spreadMethod="reflect" id="fill1"><stop offset="0" stop-color="#FF4600" stop-opacity="1"/><stop offset="0.6" stop-color="#FF4600" stop-opacity="1"/><stop offset="1" stop-color="#FF9065" stop-opacity="1"/></linearGradient><linearGradient x1="262.399" y1="-2.32684" x2="262.399" y2="471.674" gradientUnits="userSpaceOnUse" spreadMethod="reflect" id="fill2"><stop offset="0" stop-color="#FF733A" stop-opacity="1"/><stop offset="0.21" stop-color="#FF733A" stop-opacity="1"/><stop offset="0.74" stop-color="#FFA644" stop-opacity="1"/><stop offset="1" stop-color="#FFA644" stop-opacity="1"/></linearGradient></defs><g clip-path="url(#clip0)" transform="translate(-1329 -980)"><path d="M204.751 728.865C113.901 728.865 39.9682 654.946 39.9682 564.078L39.9682 207.693C39.9682 116.826 113.901 42.9051 204.751 42.9051L561.147 42.9051C652.01 42.9051 725.93 116.826 725.93 207.693L725.93 564.078C725.93 654.946 652.01 728.865 561.147 728.865ZM561.147-1.11444 204.751-1.11444C89.6222-1.11444-4.05112 92.5492-4.05112 207.693L-4.05112 564.078C-4.05112 679.223 89.6222 772.885 204.751 772.885L561.147 772.885C676.276 772.885 769.949 679.223 769.949 564.078L769.949 207.693C769.949 92.5492 676.276-1.11444 561.147-1.11444" fill="url(#fill1)" fill-rule="evenodd" transform="matrix(-1 1.22465e-16 1.22465e-16 1 2101 984)"/><path d="M427.147 471.379C425.788 471.113 423.335 470.748 421.677 470.516 413.92 469.421 410.803 467.595 401.057 458.403 395.554 453.226 391.708 450.272 389.288 449.409 388.095 448.978 387.465 448.945 385.376 449.276 382.591 449.675 375.828 450.969 371.286 451.931 369.662 452.296 367.176 452.794 365.816 453.093 362.634 453.69 350.036 456.378 343.273 457.905 339.626 458.702 314.464 463.713 307.635 465.007 296.695 467.031 293.545 467.563 290.893 467.762L288.075 467.961 286.849 466.6C283.003 462.352 278.66 448.878 274.815 429.365 274.317 426.909 273.555 423.125 273.124 421.002 271.632 413.734 270.737 409.287 269.908 405.139 269.444 402.849 268.681 399.065 268.184 396.676 267.72 394.32 267.024 391.034 266.692 389.375 266.328 387.749 265.896 385.558 265.731 384.563 265.532 383.567 264.471 378.324 263.377 372.948 262.283 367.571 261.222 362.427 261.056 361.498 260.891 360.602 260.161 356.919 259.399 353.367 258.669 349.817 257.907 346.033 257.708 344.938 257.542 343.876 257.144 342.018 256.879 340.79 256.581 339.595 256.249 337.936 256.117 337.106 255.785 335.215 253.465 323.831 253.232 323.135 253.1 322.703 252.205 322.571 247.531 322.371 242.492 322.172 236.723 321.741 227.739 320.878 210.235 319.185 187.691 314.207 168.728 307.836 151.423 302.061 137.698 296.087 119.498 286.497 117.21 285.269 113.332 283.244 110.879 281.95 106.436 279.627 100.502 276.508 98.2807 275.346L97.1537 274.715 95.9602 275.844C94.5012 277.271 88.5671 281.452 85.0532 283.51 70.4993 292.039 53.4594 293.93 39.7345 288.554 25.5122 282.946 10.2294 268.277 2.80343 253.011-1.04248 245.179-2.63365 238.443-2.60042 230.079-2.60042 222.579-1.40695 217.004 1.70929 210.035 4.75943 203.232 4.99133 202.9 13.2463 194.769 17.4563 190.654 23.4569 184.714 26.6396 181.594L32.3747 175.919 32.0102 167.457C31.7779 162.777 31.7118 158.032 31.8112 156.87 31.8776 155.708 32.1428 152.589 32.3418 149.934 33.9991 127.865 42.4859 105.63 56.6089 86.581 65.129 75.0652 77.7265 62.4876 90.7554 52.5315 103.485 42.8413 117.509 34.1131 132.659 26.5467 142.572 21.5685 148.506 18.9467 158.949 14.9644 164.087 13.0397 172.873 10.053 176.685 8.95767 177.978 8.59269 180.099 7.9621 181.426 7.56386 196.046 3.31594 217.86-0.533746 234.27-1.76169 241.828-2.32579 265.465-2.5249 274.317-2.09342 293.379-1.16434 312.807 1.55715 335.317 6.40242 364.358 12.6747 395.388 24.5223 417.633 37.8298 432.485 46.6906 443.292 55.1532 454 66.2043 466.532 79.114 475.052 91.9239 481.981 108.252 487.285 120.697 491.197 136.228 492.456 149.768 492.655 151.958 492.887 154.215 492.987 154.746 493.086 155.31 493.252 160.653 493.351 166.627L493.55 177.545 494.346 177.844C495.838 178.408 501.209 181.163 503.728 182.656 512.314 187.767 519.276 195.101 522.956 202.867 526.139 209.537 527.365 215.345 527.399 223.442 527.432 232.004 526.304 237.779 522.459 249.162 517.884 262.602 513.508 270.301 506.546 277.204 494.876 288.753 479.726 292.271 457.315 288.62 451.415 287.658 448.431 286.53 442.397 282.913 439.281 281.021 433.347 276.972 430.33 274.583 428.705 273.321 428.308 273.156 427.844 273.488 427.545 273.72 425.589 275.18 423.501 276.74 414.516 283.51 402.416 290.612 391.608 295.49 387.398 297.415 380.138 300.468 377.917 301.264 377.022 301.597 374.999 302.327 373.441 302.924 349.141 311.951 315.856 319.152 280.981 323.002 278.329 323.301 276.107 323.566 276.074 323.632 275.942 323.765 277.036 329.274 277.964 333.29 278.329 334.75 279.356 339.463 280.285 343.743 281.213 348.025 282.241 352.803 282.572 354.363 282.937 355.923 283.6 358.976 284.097 361.167 284.561 363.357 285.324 366.708 285.721 368.633 287.313 375.735 288.274 380.016 289.103 383.833 289.567 385.957 290.296 389.275 290.727 391.2 291.158 393.125 291.921 396.477 292.418 398.667 295.17 411.212 296.43 416.754 299.844 431.522 301.303 437.794 302.828 444 302.96 444.199 302.994 444.232 305.182 443.801 307.8 443.27 310.453 442.739 313.735 442.075 315.094 441.81 316.453 441.544 321.625 440.515 326.531 439.487 331.471 438.458 336.609 437.429 337.969 437.164 339.328 436.898 343.008 436.168 346.091 435.504 349.207 434.874 354.711 433.745 358.357 433.015 362.004 432.285 366.347 431.389 367.971 431.024 369.629 430.692 372.911 429.995 375.265 429.531 383.818 427.805 386.205 427.241 386.437 426.909 386.569 426.71 386.702 426.179 386.702 425.747 386.702 425.283 387.1 423.292 387.564 421.267 390.083 410.349 394.128 402.152 399.664 396.543 404.206 392.03 408.814 389.375 415.279 387.649 418.428 386.82 419.29 386.753 426.186 386.62 433.877 386.488 438.32 386.952 443.922 388.412 457.017 391.797 465.239 400.061 467.957 412.506 469.084 417.683 469.317 421.533 468.919 428.834 468.554 435.737 468.09 438.922 466.764 443.27 461.99 459.133 452.243 468.658 438.452 470.981 434.109 471.744 429.965 471.877 427.147 471.379ZM183.978 228.819C195.548 226.13 203.604 220.289 208.411 211.097 210.268 207.612 211.096 205.289 212.157 200.842 213.45 195.333 213.716 192.313 213.55 184.68 213.417 178.143 213.351 177.446 212.489 174.824 210.798 169.614 208.643 166.129 204.698 162.412 201.88 159.79 199.328 158.032 195.515 156.206 186.365 151.826 172.276 149.005 164.12 149.901 155.169 150.896 149.865 153.386 143.831 159.392 137.466 165.731 134.118 172.302 131.101 184.382 129.576 190.521 129.013 198.751 129.775 203.696 131.532 214.714 138.859 222.579 151.324 226.728 154.241 227.69 160.275 229.084 164.419 229.681 164.982 229.781 168.762 229.814 172.873 229.748 179.47 229.648 180.763 229.549 183.978 228.819ZM364.026 228.819C367.507 227.922 372.215 226.031 374.867 224.471 383.221 219.593 389.089 210.898 392.205 198.718 393.067 195.366 393.1 194.869 393.134 186.107 393.167 177.047 393.167 176.948 392.238 173.696 389.686 164.735 384.182 158.496 375.198 154.348 371.618 152.688 362.766 149.735 359.849 149.237 356.534 148.64 350.069 148.706 346.588 149.37 333.891 151.759 320.829 161.815 315.691 173.098 313.038 178.972 312.177 184.714 312.74 193.01 313.503 204.758 317.05 213.187 323.979 219.659 329.25 224.604 335.184 227.325 345.262 229.449 346.787 229.748 349.34 229.847 354.047 229.781 359.849 229.681 361.109 229.549 364.026 228.819ZM177.945 94.6121C189.15 85.6519 198.764 79.7778 211.66 74.0363 221.407 69.6558 235.629 66.0385 247.298 64.9435 252.934 64.4123 265.068 64.4123 270.505 64.9103 285.324 66.3706 300.573 70.4522 316.42 77.2554 319.072 78.384 325.04 81.2381 329.681 83.561 346.422 91.9239 353.252 94.5127 358.689 94.5127 361.175 94.5127 363.264 94.1145 363.927 93.5171 364.093 93.3842 364.026 92.0901 363.827 90.663 363.396 87.3442 361.308 82.9636 358.722 79.8772 352.456 72.2775 339.958 65.2087 321.89 59.0029 307.768 54.1576 294.573 51.2706 279.456 49.6777 269.577 48.6157 254.757 48.6157 245.309 49.6777 225.286 51.868 204.93 57.3106 190.609 64.3462 179.37 69.8217 168.629 77.9193 165.148 83.4284 164.187 84.9548 163.258 87.8422 163.258 89.2692 163.258 91.2936 165.314 93.9815 167.999 95.4086 169.192 96.0724 173.237 97.7979 173.635 97.7979 173.768 97.8312 175.69 96.3709 177.945 94.6121Z" fill="url(#fill2)" fill-rule="evenodd" transform="matrix(1 0 0 -1 1449 1608)"/></g></svg>