<svg width="780" height="779" xmlns="http://www.w3.org/2000/svg" xmlns:xlink="http://www.w3.org/1999/xlink" overflow="hidden"><defs><clipPath id="clip0"><rect x="2300" y="1897" width="780" height="779"/></clipPath><linearGradient x1="2725.75" y1="1870.13" x2="2652.68" y2="2705.37" gradientUnits="userSpaceOnUse" spreadMethod="reflect" id="fill1"><stop offset="0" stop-color="#FFD283" stop-opacity="1"/><stop offset="0.23" stop-color="#FFD283" stop-opacity="1"/><stop offset="0.72" stop-color="#FFAB1A" stop-opacity="1"/><stop offset="1" stop-color="#FFAB1A" stop-opacity="1"/></linearGradient><linearGradient x1="2725.75" y1="1870.13" x2="2652.68" y2="2705.37" gradientUnits="userSpaceOnUse" spreadMethod="reflect" id="fill2"><stop offset="0" stop-color="#FFD283" stop-opacity="1"/><stop offset="0.23" stop-color="#FFD283" stop-opacity="1"/><stop offset="0.72" stop-color="#FFAB1A" stop-opacity="1"/><stop offset="1" stop-color="#FFAB1A" stop-opacity="1"/></linearGradient><linearGradient x1="2725.75" y1="1870.13" x2="2652.68" y2="2705.37" gradientUnits="userSpaceOnUse" spreadMethod="reflect" id="fill3"><stop offset="0" stop-color="#FFD283" stop-opacity="1"/><stop offset="0.23" stop-color="#FFD283" stop-opacity="1"/><stop offset="0.72" stop-color="#FFAB1A" stop-opacity="1"/><stop offset="1" stop-color="#FFAB1A" stop-opacity="1"/></linearGradient><linearGradient x1="2725.75" y1="1870.13" x2="2652.68" y2="2705.37" gradientUnits="userSpaceOnUse" spreadMethod="reflect" id="fill4"><stop offset="0" stop-color="#FFD283" stop-opacity="1"/><stop offset="0.23" stop-color="#FFD283" stop-opacity="1"/><stop offset="0.72" stop-color="#FFAB1A" stop-opacity="1"/><stop offset="1" stop-color="#FFAB1A" stop-opacity="1"/></linearGradient><linearGradient x1="2725.75" y1="1870.13" x2="2652.68" y2="2705.37" gradientUnits="userSpaceOnUse" spreadMethod="reflect" id="fill5"><stop offset="0" stop-color="#FFD283" stop-opacity="1"/><stop offset="0.23" stop-color="#FFD283" stop-opacity="1"/><stop offset="0.72" stop-color="#FFAB1A" stop-opacity="1"/><stop offset="1" stop-color="#FFAB1A" stop-opacity="1"/></linearGradient><linearGradient x1="2725.75" y1="1870.13" x2="2652.68" y2="2705.37" gradientUnits="userSpaceOnUse" spreadMethod="reflect" id="fill6"><stop offset="0" stop-color="#FFD283" stop-opacity="1"/><stop offset="0.23" stop-color="#FFD283" stop-opacity="1"/><stop offset="0.72" stop-color="#FFAB1A" stop-opacity="1"/><stop offset="1" stop-color="#FFAB1A" stop-opacity="1"/></linearGradient><linearGradient x1="2725.75" y1="1870.13" x2="2652.68" y2="2705.37" gradientUnits="userSpaceOnUse" spreadMethod="reflect" id="fill7"><stop offset="0" stop-color="#FFD283" stop-opacity="1"/><stop offset="0.23" stop-color="#FFD283" stop-opacity="1"/><stop offset="0.72" stop-color="#FFAB1A" stop-opacity="1"/><stop offset="1" stop-color="#FFAB1A" stop-opacity="1"/></linearGradient><linearGradient x1="2725.75" y1="1870.13" x2="2652.68" y2="2705.37" gradientUnits="userSpaceOnUse" spreadMethod="reflect" id="fill8"><stop offset="0" stop-color="#FFD283" stop-opacity="1"/><stop offset="0.23" stop-color="#FFD283" stop-opacity="1"/><stop offset="0.72" stop-color="#FFAB1A" stop-opacity="1"/><stop offset="1" stop-color="#FFAB1A" stop-opacity="1"/></linearGradient><linearGradient x1="2725.75" y1="1870.13" x2="2652.68" y2="2705.37" gradientUnits="userSpaceOnUse" spreadMethod="reflect" id="fill9"><stop offset="0" stop-color="#FFD283" stop-opacity="1"/><stop offset="0.23" stop-color="#FFD283" stop-opacity="1"/><stop offset="0.72" stop-color="#FFAB1A" stop-opacity="1"/><stop offset="1" stop-color="#FFAB1A" stop-opacity="1"/></linearGradient><linearGradient x1="2725.75" y1="1870.13" x2="2652.68" y2="2705.37" gradientUnits="userSpaceOnUse" spreadMethod="reflect" id="fill10"><stop offset="0" stop-color="#FFD283" stop-opacity="1"/><stop offset="0.23" stop-color="#FFD283" stop-opacity="1"/><stop offset="0.72" stop-color="#FFAB1A" stop-opacity="1"/><stop offset="1" stop-color="#FFAB1A" stop-opacity="1"/></linearGradient><linearGradient x1="2725.75" y1="1870.13" x2="2652.68" y2="2705.37" gradientUnits="userSpaceOnUse" spreadMethod="reflect" id="fill11"><stop offset="0" stop-color="#FFD283" stop-opacity="1"/><stop offset="0.23" stop-color="#FFD283" stop-opacity="1"/><stop offset="0.72" stop-color="#FFAB1A" stop-opacity="1"/><stop offset="1" stop-color="#FFAB1A" stop-opacity="1"/></linearGradient><linearGradient x1="2725.75" y1="1870.13" x2="2652.68" y2="2705.37" gradientUnits="userSpaceOnUse" spreadMethod="reflect" id="fill12"><stop offset="0" stop-color="#FFD283" stop-opacity="1"/><stop offset="0.23" stop-color="#FFD283" stop-opacity="1"/><stop offset="0.72" stop-color="#FFAB1A" stop-opacity="1"/><stop offset="1" stop-color="#FFAB1A" stop-opacity="1"/></linearGradient><linearGradient x1="2725.75" y1="1870.13" x2="2652.68" y2="2705.37" gradientUnits="userSpaceOnUse" spreadMethod="reflect" id="fill13"><stop offset="0" stop-color="#FFD283" stop-opacity="1"/><stop offset="0.23" stop-color="#FFD283" stop-opacity="1"/><stop offset="0.72" stop-color="#FFAB1A" stop-opacity="1"/><stop offset="1" stop-color="#FFAB1A" stop-opacity="1"/></linearGradient><linearGradient x1="2725.75" y1="1870.13" x2="2652.68" y2="2705.37" gradientUnits="userSpaceOnUse" spreadMethod="reflect" id="fill14"><stop offset="0" stop-color="#FFD283" stop-opacity="1"/><stop offset="0.23" stop-color="#FFD283" stop-opacity="1"/><stop offset="0.72" stop-color="#FFAB1A" stop-opacity="1"/><stop offset="1" stop-color="#FFAB1A" stop-opacity="1"/></linearGradient><linearGradient x1="2725.75" y1="1870.13" x2="2652.68" y2="2705.37" gradientUnits="userSpaceOnUse" spreadMethod="reflect" id="fill15"><stop offset="0" stop-color="#FFD283" stop-opacity="1"/><stop offset="0.23" stop-color="#FFD283" stop-opacity="1"/><stop offset="0.72" stop-color="#FFAB1A" stop-opacity="1"/><stop offset="1" stop-color="#FFAB1A" stop-opacity="1"/></linearGradient><linearGradient x1="2725.75" y1="1870.13" x2="2652.68" y2="2705.37" gradientUnits="userSpaceOnUse" spreadMethod="reflect" id="fill16"><stop offset="0" stop-color="#FFD283" stop-opacity="1"/><stop offset="0.23" stop-color="#FFD283" stop-opacity="1"/><stop offset="0.72" stop-color="#FFAB1A" stop-opacity="1"/><stop offset="1" stop-color="#FFAB1A" stop-opacity="1"/></linearGradient><linearGradient x1="2725.75" y1="1870.13" x2="2652.68" y2="2705.37" gradientUnits="userSpaceOnUse" spreadMethod="reflect" id="fill17"><stop offset="0" stop-color="#FFD283" stop-opacity="1"/><stop offset="0.23" stop-color="#FFD283" stop-opacity="1"/><stop offset="0.72" stop-color="#FFAB1A" stop-opacity="1"/><stop offset="1" stop-color="#FFAB1A" stop-opacity="1"/></linearGradient><linearGradient x1="2725.75" y1="1870.13" x2="2652.68" y2="2705.37" gradientUnits="userSpaceOnUse" spreadMethod="reflect" id="fill18"><stop offset="0" stop-color="#FFD283" stop-opacity="1"/><stop offset="0.23" stop-color="#FFD283" stop-opacity="1"/><stop offset="0.72" stop-color="#FFAB1A" stop-opacity="1"/><stop offset="1" stop-color="#FFAB1A" stop-opacity="1"/></linearGradient><linearGradient x1="2725.75" y1="1870.13" x2="2652.68" y2="2705.37" gradientUnits="userSpaceOnUse" spreadMethod="reflect" id="fill19"><stop offset="0" stop-color="#FFD283" stop-opacity="1"/><stop offset="0.23" stop-color="#FFD283" stop-opacity="1"/><stop offset="0.72" stop-color="#FFAB1A" stop-opacity="1"/><stop offset="1" stop-color="#FFAB1A" stop-opacity="1"/></linearGradient><linearGradient x1="346.247" y1="-30.8687" x2="419.321" y2="804.367" gradientUnits="userSpaceOnUse" spreadMethod="reflect" id="fill20"><stop offset="0" stop-color="#FFD283" stop-opacity="1"/><stop offset="0.23" stop-color="#FFD283" stop-opacity="1"/><stop offset="0.72" stop-color="#FFAB1A" stop-opacity="1"/><stop offset="1" stop-color="#FFAB1A" stop-opacity="1"/></linearGradient></defs><g clip-path="url(#clip0)" transform="translate(-2300 -1897)"><path d="M2565.74 2421.72C2552.04 2418.85 2535.49 2414.25 2521.79 2401.61 2490.4 2373.44 2480.7 2326.89 2459.01 2338.96 2436.75 2351.03 2437.32 2426.32 2506.95 2449.31 2530.92 2457.36 2552.61 2457.36 2570.31 2456.78 2574.87 2456.78 2614.26 2452.76 2627.96 2433.22 2641.65 2413.68 2631.95 2408.5 2627.38 2406.2 2622.25 2403.33 2585.15 2425.17 2565.74 2421.72Z" fill="url(#fill1)" fill-rule="evenodd"/><path d="M2461.68 2340.37C2450.24 2343.82 2444.52 2367.96 2450.24 2388.07 2455.96 2408.18 2465.11 2418.53 2472.54 2426 2471.4 2421.98 2469.11 2409.33 2478.83 2401.86 2490.84 2392.09 2512 2397.27 2512 2397.27 2512 2397.27 2494.27 2375.43 2485.12 2359.91 2475.98 2346.69 2473.12 2338.07 2461.68 2340.37Z" fill="url(#fill2)" fill-rule="evenodd"/><path d="M2656.18 2466C2645.89 2472.91 2610.44 2498.23 2565.26 2512.62L2562.98 2513.2C2560.69 2513.78 2559.54 2516.65 2560.69 2518.96 2570.41 2532.77 2588.14 2560.4 2556.69 2570.19 2526.38 2579.97 2469.77 2498.81 2493.78 2477.51 2504.65 2469.45 2514.37 2473.48 2519.52 2475.79 2522.38 2476.94 2525.24 2476.94 2528.09 2476.36 2534.96 2474.06 2547.54 2469.45 2557.26 2464.27 2581.85 2451.61 2587.56 2446.43 2599 2437.8 2610.44 2429.16 2636.74 2407.86 2657.9 2426.28 2676.2 2441.82 2665.9 2459.09 2656.18 2466Z" fill="url(#fill3)" fill-rule="evenodd"/><path d="M2746.96 2346.43C2749.84 2348.73 2784.98 2390.13 2796.51 2379.78 2810.33 2367.71 2829.35 2344.13 2850.09 2363.11 2870.83 2382.08 2831.65 2414.28 2814.94 2422.9 2775.19 2440.73 2742.93 2406.8 2736.01 2397.6 2729.1 2388.41 2717 2372.88 2717 2357.93 2717.58 2341.83 2737.16 2337.81 2746.96 2346.43Z" fill="url(#fill4)" fill-rule="evenodd"/><path d="M2705.08 2438.4C2711.94 2433.21 2718.8 2424.57 2727.95 2411.33 2735.38 2400.39 2743.38 2379.08 2743.38 2379.08 2748.53 2364.68 2751.96 2337.03 2733.09 2337.61 2720.51 2338.19 2709.08 2336.46 2689.65 2333.58 2655.35 2326.67 2649.06 2322.06 2634.77 2345.67 2619.33 2373.32 2579.89 2393.47 2628.48 2441.28 2628.48 2441.28 2656.49 2463.16 2690.22 2496.57 2713.08 2519.03 2749.1 2551.28 2761.67 2562.22 2764.53 2564.53 2767.96 2565.68 2771.39 2566.25 2826.84 2571.44 2868 2565.68 2868 2540.91 2868 2499.45 2786.25 2513.84 2786.25 2513.84 2786.25 2513.84 2759.96 2491.38 2747.95 2480.44L2705.08 2438.4Z" fill="url(#fill5)" fill-rule="evenodd"/><path d="M2729.63 2400.29C2729.63 2400.29 2740.4 2386.01 2716.03 2370.59 2690.53 2354.02 2680.9 2372.3 2670.69 2386.01 2659.36 2403.72 2670.69 2412.29 2682.03 2422.58 2691.1 2431.14 2699.6 2438 2699.6 2438 2699.6 2438 2717.16 2426 2729.63 2400.29Z" fill="url(#fill6)" fill-rule="evenodd"/><path d="M2613.24 2390.42C2625.85 2406.49 2645.34 2426.58 2620.69 2443.22 2586.87 2462.16 2558.78 2404.77 2553.05 2384.68 2547.89 2366.88 2562.79 2355.4 2575.4 2345.65 2600.05 2327.85 2620.69 2311.78 2643.62 2320.39 2672.28 2330.72 2651.64 2353.68 2637.31 2364.01 2628.71 2370.33 2620.11 2377.22 2613.81 2381.23 2612.09 2384.1 2611.52 2387.55 2613.24 2390.42Z" fill="url(#fill7)" fill-rule="evenodd"/><path d="M2744.39 2054.55C2731.2 2052.25 2717.43 2051.1 2701.37 2052.25 2674.41 2053.4 2648.6 2063.17 2648.6 2063.17L2579.19 2017.77C2576.9 2016.62 2574.03 2018.34 2574.6 2020.64L2586.65 2123.52C2590.09 2118.92 2525.85 2197.08 2566.57 2262.59 2607.3 2328.11 2693.91 2357.42 2801.75 2336.15 2909.59 2314.89 2934.83 2252.82 2927.95 2220.07 2921.07 2187.31 2880.34 2175.24 2880.34 2175.24 2880.34 2175.24 2879.77 2149.38 2861.41 2117.77 2850.51 2098.8 2813.8 2071.79 2813.8 2071.79L2798.89 2010.3C2798.31 2008 2795.44 2007.43 2793.72 2008.57L2744.39 2054.55Z" fill="url(#fill8)" fill-rule="evenodd"/><path d="M2878.62 2177.05C2878.62 2177.05 2918.14 2187.42 2925.01 2220.24 2931.88 2253.06 2904.39 2312.38 2797.88 2333.11 2659.29 2361.9 2593.43 2278.98 2631.8 2217.94 2670.17 2156.32 2736.03 2208.72 2784.13 2205.27 2825.36 2202.39 2829.95 2166.11 2878.62 2177.05Z" fill="url(#fill9)" fill-rule="evenodd"/><path d="M2698.27 2238.59C2698.27 2236.27 2700.56 2234.53 2702.84 2235.11 2713.71 2239.17 2744.6 2248.43 2778.92 2250.75 2809.81 2252.48 2828.11 2250.75 2836.7 2249.01 2839.56 2248.43 2841.84 2251.32 2840.7 2254.22 2835.55 2269.85 2813.81 2313.28 2753.75 2309.8 2701.7 2304.01 2696.55 2266.96 2698.27 2238.59Z" fill="url(#fill10)" fill-rule="evenodd"/><path d="M2916 2206C2916 2206 2957.14 2205.44 2984 2184" fill="url(#fill11)" fill-rule="evenodd"/><path d="M2918 2240C2918 2240 2940.18 2251.53 2976 2248.49" fill="url(#fill12)" fill-rule="evenodd"/><path d="M2781.57 2191C2793.7 2191 2806.4 2192.15 2806.97 2196.18 2807.55 2204.24 2798.89 2220.36 2789.65 2220.94 2779.26 2222.09 2755.02 2207.69 2755.02 2198.48 2754.44 2191.58 2770.03 2191 2781.57 2191Z" fill="url(#fill13)" fill-rule="evenodd"/><path d="M2524 2182C2524 2182 2573.04 2198.14 2593 2216" fill="url(#fill14)" fill-rule="evenodd"/><path d="M2528 2239.79C2528 2239.79 2570.38 2246.74 2595 2236" fill="url(#fill15)" fill-rule="evenodd"/><path d="M2849.19 2123.6C2865.78 2149.54 2866.36 2178.92 2850.33 2189.3 2834.31 2199.67 2807.98 2187.57 2790.81 2161.64 2774.22 2135.71 2773.64 2106.32 2789.67 2095.95 2805.69 2085 2832.59 2097.67 2849.19 2123.6Z" fill="url(#fill16)" fill-rule="evenodd"/><path d="M2847 2156.5C2847 2162.83 2842.33 2168 2836.5 2168 2830.67 2168 2826 2162.83 2826 2156.5 2826 2150.18 2830.67 2145 2836.5 2145 2842.33 2145 2847 2150.18 2847 2156.5" fill="url(#fill17)" fill-rule="evenodd"/><path d="M2707.49 2139.68C2724.65 2164.73 2723.5 2195.47 2708.06 2206.29 2689.19 2217.1 2664.03 2209.13 2646.88 2184.08 2629.15 2159.03 2628.01 2126.58 2645.74 2114.06 2663.46 2100.96 2690.34 2114.63 2707.49 2139.68Z" fill="url(#fill18)" fill-rule="evenodd"/><path d="M2704 2172.5C2704 2178.83 2699.33 2184 2693.5 2184 2687.67 2184 2683 2178.83 2683 2172.5 2683 2166.18 2687.67 2161 2693.5 2161 2699.33 2161.58 2704 2166.18 2704 2172.5" fill="url(#fill19)" fill-rule="evenodd"/><path d="M204.814 729.73C114.062 729.73 40.246 655.809 40.246 564.94L40.246 208.557C40.246 117.689 114.062 43.7682 204.814 43.7682L560.754 43.7682C651.505 43.7682 725.322 117.689 725.322 208.557L725.322 564.94C725.322 655.809 651.505 729.73 560.754 729.73ZM560.754-0.250902 204.814-0.250902C89.8123-0.250902-3.71638 93.4129-3.71638 208.557L-3.71638 564.94C-3.71638 680.085 89.8123 773.749 204.814 773.749L560.754 773.749C675.731 773.749 769.284 680.085 769.284 564.94L769.284 208.557C769.284 93.4129 675.731-0.250902 560.754-0.250902" fill="url(#fill20)" fill-rule="evenodd" transform="matrix(-1 1.22465e-16 1.22465e-16 1 3072 1901)"/></g></svg>