<svg width="779" height="779" xmlns="http://www.w3.org/2000/svg" xmlns:xlink="http://www.w3.org/1999/xlink" overflow="hidden"><defs><clipPath id="clip0"><rect x="357" y="1897" width="779" height="779"/></clipPath><linearGradient x1="740.981" y1="1994.54" x2="689.019" y2="2588.46" gradientUnits="userSpaceOnUse" spreadMethod="reflect" id="fill1"><stop offset="0" stop-color="#FFFFFF" stop-opacity="1"/><stop offset="0.27" stop-color="#FFFFFF" stop-opacity="1"/><stop offset="0.73" stop-color="#E2E2E2" stop-opacity="1"/><stop offset="1" stop-color="#E2E2E2" stop-opacity="1"/></linearGradient><linearGradient x1="419.776" y1="-30.9156" x2="346.782" y2="803.415" gradientUnits="userSpaceOnUse" spreadMethod="reflect" id="fill2"><stop offset="0" stop-color="#0F1C2E" stop-opacity="1"/><stop offset="0.27" stop-color="#0F1C2E" stop-opacity="1"/><stop offset="0.86" stop-color="#1381B3" stop-opacity="1"/><stop offset="1" stop-color="#1381B3" stop-opacity="1"/></linearGradient></defs><g clip-path="url(#clip0)" transform="translate(-357 -1897)"><path d="M957.732 2180.51C957.732 2204.3 949.322 2224.66 932.436 2241.47 915.551 2258.34 895.237 2266.74 871.43 2266.74 847.623 2266.74 827.244 2258.34 810.424 2241.47 793.538 2224.59 785.128 2204.3 785.128 2180.51 785.128 2156.72 793.538 2136.36 810.424 2119.55 827.309 2102.74 847.623 2094.27 871.43 2094.27 895.237 2094.27 915.616 2102.68 932.436 2119.55 949.257 2136.42 957.732 2156.72 957.732 2180.51ZM685.306 2442.83C685.306 2418.33 676.701 2397.45 659.493 2380.25 642.284 2363.06 621.388 2354.46 596.869 2354.46 590.529 2354.46 584.124 2355.17 577.784 2356.6L614.595 2371.46C632.774 2378.77 645.648 2391.31 653.347 2409.09 661.045 2426.86 661.175 2444.7 653.864 2462.61 646.554 2480.77 633.939 2493.57 616.018 2501.14 598.098 2508.7 580.178 2508.83 562.258 2501.52 557.276 2499.65 549.966 2496.74 540.327 2492.86 530.687 2488.98 523.441 2486.08 518.719 2484.2 526.288 2498.36 537.027 2509.73 550.936 2518.33 564.846 2526.93 580.178 2531.2 596.934 2531.2 621.453 2531.2 642.349 2522.6 659.557 2505.4 676.637 2488.14 685.241 2467.26 685.306 2442.83ZM978.951 2180.9C978.951 2151.23 968.406 2125.82 947.316 2104.75 926.226 2083.67 900.801 2073.14 871.106 2073.14 841.153 2073.14 815.599 2083.67 794.509 2104.75 773.419 2125.82 762.809 2151.23 762.874 2180.9 762.874 2210.83 773.419 2236.29 794.509 2257.24 815.599 2278.25 841.153 2288.72 871.106 2288.72 900.801 2288.72 926.226 2278.25 947.316 2257.24 968.406 2236.23 978.951 2210.76 978.951 2180.9ZM1032 2180.9C1032 2225.44 1016.28 2263.38 984.773 2294.73 953.268 2326.08 915.357 2341.73 871.042 2341.73L716.423 2454.46C713.577 2484.85 700.768 2510.57 677.866 2531.52 654.964 2552.46 627.987 2563 596.869 2563 568.339 2563 543.109 2554.01 521.177 2536.11 499.246 2518.2 485.337 2495.58 479.45 2468.23L398 2435.72 398 2284.07 535.604 2339.59C554.236 2328.28 574.614 2322.59 596.805 2322.59 599.845 2322.59 603.985 2322.85 609.161 2323.3L709.631 2179.41C710.083 2135.32 726.063 2097.77 757.569 2066.67 789.139 2035.58 826.92 2020 871.042 2020 915.422 2020 953.333 2035.71 984.773 2067.19 1016.21 2098.67 1032 2136.55 1032 2180.9Z" fill="url(#fill1)" fill-rule="evenodd"/><path d="M205.079 728.787C114.21 728.787 40.298 654.962 40.298 564.211L40.298 208.288C40.298 117.537 114.21 43.7116 205.079 43.7116L561.479 43.7116C652.348 43.7116 726.26 117.537 726.26 208.288L726.26 564.211C726.26 654.962 652.348 728.787 561.479 728.787ZM561.479-0.250578 205.079-0.250578C89.9284-0.250578-3.72119 93.2922-3.72119 208.288L-3.72119 564.211C-3.72119 679.207 89.9284 772.75 205.079 772.75L561.479 772.75C676.604 772.75 770.279 679.207 770.279 564.211L770.279 208.288C770.279 93.2922 676.604-0.250578 561.479-0.250578" fill="url(#fill2)" fill-rule="evenodd" transform="matrix(-1 1.22465e-16 1.22465e-16 1 1129 1902)"/></g></svg>