<svg width="779" height="779" xmlns="http://www.w3.org/2000/svg" xmlns:xlink="http://www.w3.org/1999/xlink" overflow="hidden"><defs><clipPath id="clip0"><rect x="2291" y="68" width="779" height="779"/></clipPath><linearGradient x1="109.052" y1="-68.216" x2="393.553" y2="424.554" gradientUnits="userSpaceOnUse" spreadMethod="reflect" id="fill1"><stop offset="0" stop-color="#EB3C3B" stop-opacity="1"/><stop offset="0.68" stop-color="#EB3C3B" stop-opacity="1"/><stop offset="0.99" stop-color="#E7CDB5" stop-opacity="1"/><stop offset="1" stop-color="#E7CDB5" stop-opacity="1"/></linearGradient></defs><g clip-path="url(#clip0)" transform="translate(-2291 -68)"><path d="M204.837 727.276C113.966 727.276 40.0518 653.354 40.0518 562.491L40.0518 206.101C40.0518 115.237 113.966 41.3145 204.837 41.3145L561.227 41.3145C652.078 41.3145 726.011 115.237 726.011 206.101L726.011 562.491C726.011 653.354 652.078 727.276 561.227 727.276ZM561.227-2.70395 204.837-2.70395C89.6929-2.70395-3.96846 90.965-3.96846 206.101L-3.96846 562.491C-3.96846 677.625 89.6929 771.297 204.837 771.297L561.227 771.297C676.352 771.297 770.032 677.625 770.032 562.491L770.032 206.101C770.032 90.965 676.352-2.70395 561.227-2.70395" fill="#EB3C3B" fill-rule="evenodd" fill-opacity="1" transform="matrix(1 0 0 -1 2299 841)"/><path d="M201.98 106.41 201.98 249.225 325.785 178.17ZM505.137 269.444C503.259 316.398 462.159 356.038 415.28 357.259 305.957 359.806 196.634 359.806 87.3113 357.259 40.451 356.036-0.667215 316.396-2.54538 269.444-4.74849 208.593-4.74849 147.744-2.54538 86.8929-0.649162 39.9414 40.4329 0.301145 87.3113-0.919683 196.634-3.46822 305.957-3.46822 415.28-0.919683 462.141 0.301145 503.259 39.9414 505.137 86.8929 507.358 147.744 507.358 208.593 505.137 269.444" fill="url(#fill1)" fill-rule="evenodd" transform="matrix(1 0 0 -1 2431 637)"/></g></svg>